#!OML:ASF H:\ManfredETheater\Project 1\Capture day 1\Session 1\subject.ASF
:FULLY-SPECIFIED
:DEGREES
225
root -6.25903 10.085 -7.04133 -11.6634 74.4625 -17.0179
lowerback 64.714 -9.19713 4.50115
upperback 12.5624 -3.96364 3.27268
thorax -7.0738 -0.957594 3.4178
lowerneck 8.09584 -14.5732 -14.919
upperneck -15.0133 -19.5666 21.1996
head -1.98051 -10.5296 9.1219
rclavicle 7.15625e-015 2.06736e-014
rhumerus -18.8992 -7.04316 -62.723
rradius 91.9098
rwrist -18.5839
rhand -25.2309 -9.49058
rfingers 7.12502
rthumb 1.28855 -39.4664
lclavicle 7.15625e-015 2.06736e-014
lhumerus -16.7646 10.0412 44.2224
lradius 93.355
lwrist 7.02303
lhand -19.6244 -4.19841
lfingers 7.12502
lthumb 6.70238 25.6755
rfemur -91.8948 -53.8669 29.9362
rtibia 136.468
rfoot -18.5878 16.1812
rtoes -33.16
lfemur -92.2938 28.9496 -14.1866
ltibia 131.356
lfoot -25.2958 -31.1832
ltoes -7.33857
226
root -6.26401 10.0802 -6.92128 -16.5191 73.8963 -21.8474
lowerback 65.0596 -8.70082 4.35363
upperback 12.5494 -3.43273 3.66424
thorax -7.09325 -0.77435 3.69955
lowerneck 8.0814 -14.6577 -14.8305
upperneck -14.8504 -19.6816 21.2432
head -1.91446 -10.5933 9.09976
rclavicle 1.19271e-014 2.96189e-014
rhumerus -19.2802 -6.92256 -63.4288
rradius 91.8267
rwrist -18.7332
rhand -25.2945 -9.61891
rfingers 7.12502
rthumb 1.22713 -39.5951
lclavicle 1.19271e-014 2.96189e-014
lhumerus -16.7862 9.6236 43.3019
lradius 93.5801
lwrist 6.77954
lhand -19.4222 -4.38708
lfingers 7.12502
lthumb 6.89756 25.4806
rfemur -91.2081 -53.3954 29.5436
rtibia 136.268
rfoot -16.978 18.7864
rtoes -30.8572
lfemur -90.9281 30.2316 -12.0281
ltibia 131.087
lfoot -27.6775 -30.6974
ltoes -5.1411
227
root -6.26781 10.0674 -6.80468 -20.7141 73.3503 -26.0764
lowerback 65.231 -8.28397 4.25246
upperback 12.5588 -2.98464 4.02611
thorax -7.09396 -0.623931 3.96087
lowerneck 8.0658 -14.7612 -14.728
upperneck -14.7091 -19.82 21.2876
head -1.85184 -10.6693 9.07531
rclavicle -3.97569e-014 -4.27387e-014
rhumerus -19.667 -6.75271 -64.0402
rradius 91.7275
rwrist -18.82
rhand -25.2501 -9.66659
rfingers 7.12502
rthumb 1.27005 -39.6426
lclavicle -3.97569e-014 -4.27387e-014
lhumerus -16.7427 9.24584 42.3635
lradius 93.7811
lwrist 6.55085
lhand -19.3066 -4.50617
lfingers 7.12502
lthumb 7.00917 25.3578
rfemur -90.624 -53.0239 28.9166
rtibia 135.935
rfoot -16.0548 20.2585
rtoes -28.9984
lfemur -89.7119 31.3211 -9.80892
ltibia 130.86
lfoot -29.9947 -30.2488
ltoes -3.54116
228
root -6.27049 10.0444 -6.69214 -24.2122 72.8864 -29.7073
lowerback 65.1631 -7.96656 4.20685
upperback 12.5992 -2.64328 4.3469
thorax -7.06381 -0.514963 4.19281
lowerneck 8.0421 -14.8874 -14.6108
upperneck -14.5983 -19.9844 21.3426
head -1.79246 -10.7596 9.05081
rclavicle -1.19271e-014 5.60573e-014
rhumerus -20.0575 -6.55396 -64.5524
rradius 91.6124
rwrist -18.8483
rhand -25.0868 -9.61753
rfingers 7.12502
rthumb 1.4277 -39.5925
lclavicle -1.19271e-014 5.60573e-014
lhumerus -16.6175 8.91284 41.4252
lradius 93.9422
lwrist 6.34941
lhand -19.2824 -4.56687
lfingers 7.12502
lthumb 7.03258 25.2963
rfemur -90.2299 -52.7449 28.0864
rtibia 135.451
rfoot -15.9389 20.2661
rtoes -28.1314
lfemur -88.8335 32.1811 -7.73457
ltibia 130.705
lfoot -32.0454 -29.8991
ltoes -2.86937
229
root -6.27293 10.013 -6.58355 -27.0869 72.5246 -32.7681
lowerback 64.9373 -7.7391 4.19127
upperback 12.6548 -2.40483 4.61687
thorax -7.01709 -0.444342 4.3949
lowerneck 8.01599 -15.0352 -14.4792
upperneck -14.5301 -20.1721 21.4216
head -1.7395 -10.8642 9.03178
rclavicle 3.10104e-014 2.14687e-014
rhumerus -20.4531 -6.35213 -64.9713
rradius 91.4938
rwrist -18.8289
rhand -24.7907 -9.48359
rfingers 7.12502
rthumb 1.71376 -39.4565
lclavicle 3.10104e-014 2.14687e-014
lhumerus -16.4088 8.62395 40.4856
lradius 94.062
lwrist 6.20383
lhand -19.3592 -4.60252
lfingers 7.12502
lthumb 6.95844 25.2631
rfemur -89.8801 -52.5036 26.9501
rtibia 134.766
rfoot -16.4597 18.7754
rtoes -28.0923
lfemur -88.3007 32.8381 -5.92011
ltibia 130.622
lfoot -33.7718 -29.5996
ltoes -2.93694
